<?xml version="1.0" encoding="UTF-8" standalone="no"?>
<!-- Created with Inkscape (http://www.inkscape.org/) -->

<svg
   xmlns:dc="http://purl.org/dc/elements/1.1/"
   xmlns:cc="http://creativecommons.org/ns#"
   xmlns:rdf="http://www.w3.org/1999/02/22-rdf-syntax-ns#"
   xmlns:svg="http://www.w3.org/2000/svg"
   xmlns="http://www.w3.org/2000/svg"
   xmlns:sodipodi="http://sodipodi.sourceforge.net/DTD/sodipodi-0.dtd"
   xmlns:inkscape="http://www.inkscape.org/namespaces/inkscape"
   width="420"
   height="450"
   viewBox="0 0 420 450.00002"
   id="svg2"
   version="1.1"
   inkscape:version="0.91 r13725"
   sodipodi:docname="GoTableTexture.svg"
   inkscape:export-filename="D:\github\home\unity\UnityGo\Assets\GoTableTexture.png"
   inkscape:export-xdpi="90"
   inkscape:export-ydpi="90">
  <defs
     id="defs4">
    <inkscape:path-effect
       effect="construct_grid"
       id="path-effect3340"
       is_visible="true"
       nr_x="19"
       nr_y="19" />
  </defs>
  <sodipodi:namedview
     id="base"
     pagecolor="#ffffff"
     bordercolor="#666666"
     borderopacity="1.0"
     inkscape:pageopacity="0.0"
     inkscape:pageshadow="2"
     inkscape:zoom="1.273763"
     inkscape:cx="259.86653"
     inkscape:cy="235.89121"
     inkscape:document-units="px"
     inkscape:current-layer="layer1"
     showgrid="false"
     inkscape:window-width="1304"
     inkscape:window-height="846"
     inkscape:window-x="569"
     inkscape:window-y="73"
     inkscape:window-maximized="0"
     units="px">
    <inkscape:grid
       type="xygrid"
       id="grid3336" />
  </sodipodi:namedview>
  <metadata
     id="metadata7">
    <rdf:RDF>
      <cc:Work
         rdf:about="">
        <dc:format>image/svg+xml</dc:format>
        <dc:type
           rdf:resource="http://purl.org/dc/dcmitype/StillImage" />
        <dc:title></dc:title>
      </cc:Work>
    </rdf:RDF>
  </metadata>
  <g
     inkscape:label="Layer 1"
     inkscape:groupmode="layer"
     id="layer1"
     transform="translate(0,-602.36218)">
    <path
       style="fill:none;fill-rule:evenodd;stroke:#000000;stroke-width:1.00000006;stroke-linecap:round;stroke-linejoin:bevel;stroke-miterlimit:4;stroke-dasharray:none;stroke-opacity:1"
       d="m 20.746911,1031.6152 0,-408.5057 m 19.921378,408.5057 0,-408.5057 m 19.921378,408.5057 0,-408.5057 m 19.921378,408.5057 0,-408.5057 m 19.921375,408.5057 0,-408.5057 m 19.92138,408.5057 0,-408.5057 m 19.92138,408.5057 0,-408.5057 m 19.92138,408.5057 0,-408.5057 m 19.92138,408.5057 0,-408.5057 m 19.92137,408.5057 0,-408.5057 m 19.92138,408.5057 0,-408.5057 m 19.92138,408.5057 0,-408.5057 m 19.92138,408.5057 0,-408.5057 m 19.92137,408.5057 0,-408.5057 m 19.92138,408.5057 0,-408.5057 m 19.92138,408.5057 0,-408.5057 m 19.92138,408.5057 0,-408.5057 m 19.92138,408.5057 0,-408.5057 m 19.92138,408.5057 0,-408.5057 m 19.92137,408.5057 0,-408.5057 m -378.506179,408.5057 378.506179,0 m -378.506179,-21.5003 378.506179,0 m -378.506179,-21.5003 378.506179,0 m -378.506179,-21.5003 378.506179,0 M 20.746911,945.614 l 378.506179,0 m -378.506179,-21.5003 378.506179,0 m -378.506179,-21.5003 378.506179,0 m -378.506179,-21.5003 378.506179,0 m -378.506179,-21.5003 378.506179,0 m -378.506179,-21.5003 378.506179,0 m -378.506179,-21.5003 378.506179,0 m -378.506179,-21.5003 378.506179,0 m -378.506179,-21.5003 378.506179,0 m -378.506179,-21.5003 378.506179,0 M 20.746911,730.611 l 378.506179,0 m -378.506179,-21.5003 378.506179,0 m -378.506179,-21.5003 378.506179,0 m -378.506179,-21.5003 378.506179,0 m -378.506179,-21.5003 378.506179,0 m -378.506179,-21.5003 378.506179,0"
       id="path3338"
       inkscape:connector-curvature="0"
       inkscape:path-effect="#path-effect3340"
       inkscape:original-d="m 20.746911,1010.1149 0,21.5003 19.921378,0" />
  </g>
</svg>
